<?xml version="1.0" standalone="no"?>
<!DOCTYPE svg PUBLIC "-//W3C//DTD SVG 20010904//EN"
 "http://www.w3.org/TR/2001/REC-SVG-20010904/DTD/svg10.dtd">
<svg version="1.0" xmlns="http://www.w3.org/2000/svg"
 width="700.000000pt" height="700.000000pt" viewBox="0 0 700.000000 700.000000"
 preserveAspectRatio="xMidYMid meet">
<metadata>
Created by potrace 1.14, written by Peter Selinger 2001-2017
</metadata>
<g transform="translate(0.000000,700.000000) scale(0.100000,-0.100000)"
fill="#000000" stroke="none">
<path d="M630 6839 c-88 -23 -155 -53 -185 -83 -14 -14 -25 -23 -25 -20 0 5
-68 -64 -85 -87 -30 -40 -65 -123 -81 -194 -16 -75 -18 -161 -18 -1315 l0
-1235 387 0 c214 0 392 2 396 5 4 3 8 482 7 1066 -1 1031 0 1062 18 1097 11
19 30 40 43 46 13 6 23 14 23 19 0 5 57 10 128 11 70 2 161 4 202 6 148 7 257
7 370 1 198 -11 228 -14 241 -21 8 -6 10 -4 4 5 -6 10 -4 11 11 6 10 -5 25 -9
32 -9 6 0 12 -5 12 -10 0 -6 3 -8 6 -5 3 3 19 -7 36 -23 l31 -28 2 -1078 c1
-593 2 -1080 3 -1083 1 -3 181 -5 400 -5 l397 0 2 1255 c1 1069 -1 1263 -13
1310 -8 30 -19 57 -25 61 -6 3 -10 9 -9 13 2 11 -24 66 -32 66 -5 0 -8 7 -8
15 0 7 -8 19 -17 24 -10 6 -14 11 -9 11 14 0 -107 110 -121 110 -7 0 -13 3
-13 8 0 9 -111 48 -160 56 -19 3 -46 9 -60 13 -14 3 -430 7 -925 8 -817 1
-906 -1 -965 -16z"/>
<path d="M4646 6783 c-2 -2 -124 -16 -143 -16 -7 0 -13 -4 -13 -9 0 -5 -4 -6
-10 -3 -5 3 -10 2 -10 -2 0 -5 -12 -10 -27 -11 -15 -1 -30 -6 -33 -12 -3 -5
-15 -11 -25 -13 -31 -6 -58 -19 -77 -35 -10 -8 -18 -11 -18 -6 0 5 -4 4 -8 -1
-4 -6 -27 -23 -52 -39 -71 -46 -170 -130 -170 -144 0 -7 -4 -10 -10 -7 -5 3
-10 2 -10 -3 0 -6 -16 -27 -35 -48 -19 -22 -38 -49 -41 -61 -3 -13 -9 -23 -13
-23 -6 0 -41 -53 -42 -65 -2 -22 -13 -45 -22 -45 -6 0 -8 -3 -4 -6 3 -3 -3
-30 -13 -60 -11 -30 -17 -54 -15 -54 3 0 0 -11 -4 -24 -18 -46 -23 -165 -23
-505 0 -191 1 -351 1 -357 1 -14 729 -14 734 1 2 5 3 150 2 320 -1 171 1 315
4 320 3 6 6 15 7 20 9 47 71 122 112 135 9 3 307 5 661 5 634 0 644 -1 648
-20 7 -36 6 -141 -1 -153 -4 -7 -4 -12 1 -12 9 0 9 -280 0 -304 -4 -9 -3 -16
1 -16 4 0 7 -40 7 -90 0 -49 -4 -90 -8 -90 -5 0 -5 -5 -2 -10 11 -18 13 -403
2 -460 -6 -30 -21 -72 -34 -93 -23 -36 -161 -177 -502 -511 -78 -77 -153 -152
-167 -168 -13 -16 -24 -27 -24 -24 0 2 -43 -39 -95 -92 -52 -53 -95 -100 -95
-104 0 -4 -7 -8 -15 -8 -8 0 -15 -4 -15 -8 0 -7 -612 -624 -835 -842 -54 -52
-96 -97 -95 -99 1 -2 -10 -11 -24 -21 -15 -9 -23 -20 -19 -23 3 -4 -2 -7 -12
-7 -10 0 -16 -2 -13 -5 3 -3 -12 -23 -33 -44 -21 -22 -35 -42 -32 -45 4 -3 1
-6 -6 -6 -7 0 -9 -4 -6 -10 3 -6 2 -10 -3 -10 -12 0 -111 -200 -116 -236 -1
-7 -5 -16 -8 -20 -4 -3 -4 -12 -1 -20 3 -8 1 -14 -4 -14 -5 0 -10 -8 -11 -17
-5 -58 -4 -2115 2 -2120 8 -8 1948 -7 2041 1 126 11 168 18 235 36 25 7 50 13
55 15 6 1 24 7 40 14 17 7 32 12 34 11 2 -1 7 2 10 7 3 4 24 17 46 28 21 11
52 31 67 43 15 13 28 21 28 18 0 -4 13 7 29 23 16 16 32 27 35 24 3 -4 6 2 6
12 0 10 3 16 6 12 10 -9 47 30 39 42 -3 7 -3 11 2 10 20 -3 34 2 28 10 -3 6 1
13 8 18 19 11 81 101 97 140 7 18 16 33 21 33 5 0 9 8 9 19 0 10 7 38 16 62
20 58 41 167 49 260 4 41 9 90 10 109 6 58 7 481 2 487 -4 4 -511 7 -693 4
l-40 -1 -1 -247 c-2 -264 -9 -315 -51 -373 -13 -16 -29 -30 -38 -30 -8 0 -12
-4 -9 -10 3 -5 3 -10 -2 -11 -4 0 -16 -2 -25 -5 -10 -2 -26 -6 -35 -8 -10 -3
-18 -5 -18 -6 0 -4 -281 -13 -400 -12 -888 6 -835 3 -860 42 -5 9 -9 245 -10
599 l0 584 48 50 c26 27 47 51 47 53 0 10 39 42 44 37 3 -4 6 -1 6 4 0 6 15
27 33 46 102 109 172 180 240 244 42 40 77 78 77 84 0 7 3 10 6 6 8 -8 90 74
86 86 -1 5 1 6 6 3 5 -3 44 32 88 77 43 45 82 80 87 79 4 -1 7 2 7 7 0 13 127
140 134 133 3 -3 6 0 6 7 0 16 45 61 61 61 7 0 10 3 6 6 -3 3 27 37 66 76 40
39 71 74 70 79 -2 5 1 9 6 9 6 0 67 59 138 131 175 180 230 235 299 299 32 30
64 64 71 75 7 11 12 16 13 11 0 -4 35 27 78 70 42 43 80 77 85 76 4 -1 7 2 7
7 0 14 57 71 64 64 3 -3 6 -1 6 5 0 7 17 30 38 51 62 64 92 101 92 110 0 5 4
11 8 13 22 9 117 199 127 253 2 11 4 22 5 25 1 3 2 8 1 13 0 4 2 7 6 7 5 0 9
10 10 23 1 12 5 40 9 62 4 22 7 139 7 260 0 121 -1 573 -2 1005 l-1 785 -1051
0 c-578 0 -1052 -1 -1053 -2z"/>
<path d="M590 3090 c-94 -25 -155 -62 -223 -134 -66 -70 -106 -174 -135 -351
-9 -56 -9 -1846 1 -1920 15 -124 36 -193 80 -266 42 -70 114 -140 156 -154 12
-3 21 -11 21 -17 0 -6 3 -9 6 -5 4 3 19 0 33 -8 15 -7 65 -22 112 -31 73 -16
141 -18 514 -18 399 0 726 8 785 18 14 2 52 7 85 11 147 17 317 63 415 111 60
30 160 95 160 105 0 5 5 9 11 9 16 0 96 87 141 154 68 99 131 249 145 341 2
17 7 37 10 45 10 24 12 181 3 230 -15 84 -20 105 -46 185 -64 195 -147 316
-274 397 -87 55 -104 64 -125 71 -11 3 -50 17 -88 31 -37 14 -67 22 -67 18 0
-3 -5 -1 -12 6 -7 7 -22 12 -33 12 -12 0 -25 3 -29 7 -3 4 -14 8 -24 9 -18 2
-41 6 -112 23 -24 5 -46 8 -49 6 -2 -3 -10 0 -18 6 -9 9 -13 8 -13 0 0 -8 -6
-9 -17 -3 -10 5 -220 8 -468 7 -273 -1 -455 2 -462 8 -7 5 -13 6 -13 3 0 -4
-8 0 -17 10 -16 16 -18 40 -18 222 l1 205 46 41 47 41 785 -1 786 -1 0 298 0
297 -1017 0 c-936 0 -1023 -2 -1083 -18z m1105 -1654 c39 -4 77 -8 85 -10 8
-1 33 -6 55 -11 22 -4 50 -13 62 -21 12 -8 29 -14 38 -14 9 0 18 -7 21 -15 4
-8 11 -15 16 -15 5 0 29 -20 52 -46 96 -103 114 -301 35 -384 -8 -8 -26 -30
-42 -48 -15 -19 -27 -30 -27 -26 0 4 -8 -3 -19 -14 -10 -12 -25 -22 -32 -22
-8 0 -25 -9 -38 -19 -14 -10 -31 -17 -38 -14 -7 3 -24 -2 -37 -10 -18 -12 -69
-17 -227 -23 -299 -10 -420 -8 -546 10 -23 4 -26 16 -29 126 -2 61 -5 114 -9
119 -3 5 -1 12 5 16 6 4 7 12 3 18 -8 13 -7 185 1 285 3 37 1 62 -5 62 -5 0 2
12 17 27 26 26 29 26 182 30 86 2 157 4 158 6 5 4 249 -1 319 -7z"/>
</g>
</svg>
