<?xml version="1.0" encoding="utf-8"?>
<!-- Generator: Adobe Illustrator 27.0.0, SVG Export Plug-In . SVG Version: 6.00 Build 0)  -->
<svg version="1.1" id="Слой_1" xmlns="http://www.w3.org/2000/svg" xmlns:xlink="http://www.w3.org/1999/xlink" x="0px" y="0px"
	 viewBox="0 0 616.6 629.1" style="enable-background:new 0 0 616.6 629.1;" xml:space="preserve">
<style type="text/css">
	
		.st0{opacity:0.17;fill:none;stroke:#FF6000;stroke-width:66.6667;stroke-linecap:round;stroke-linejoin:round;stroke-miterlimit:133.3333;}
</style>
<path class="st0" d="M101.8,396.6l129.8,130.5 M549.4,33.6c-53.2-0.5-77.8,24.1-85.9,48.9c-7.1,21.9-0.6,66.7-17.6,99.8
	c-16.2,31.7-59.2,49.6-108,51.1 M582.7,166.9l0.3,0 M549.4,445.3l0.3,0 M149.4,44.9l0.3,0 M549.4,283.6c-50,0-83.3,16.7-113.5,47.8
	 M257.3,152.9c25.4-35.9,42.1-69.3,25.7-122 M33.9,595.4l117.9-353.6l235.7,235.7L33.9,595.4z"/>
</svg>
