<?xml version="1.0" encoding="utf-8"?>
<!-- Generator: Adobe Illustrator 27.0.0, SVG Export Plug-In . SVG Version: 6.00 Build 0)  -->
<svg version="1.1" id="Слой_1" xmlns="http://www.w3.org/2000/svg" xmlns:xlink="http://www.w3.org/1999/xlink" x="0px" y="0px"
	 viewBox="0 0 666.7 666.8" style="enable-background:new 0 0 666.7 666.8;" xml:space="preserve">
<style type="text/css">
	.st0{opacity:0.17;fill-rule:evenodd;clip-rule:evenodd;fill:#FF6000;}
</style>
<path class="st0" d="M253.1,40.2c-8.1,6.9-12.2,10.4-16.5,13.3c-9.9,6.7-21.1,11.3-32.8,13.6c-5.1,1-10.4,1.4-21.1,2.3
	c-26.7,2.1-40.1,3.2-51.2,7.1c-25.8,9.1-46,29.4-55.1,55.1c-3.9,11.1-5,24.5-7.1,51.2c-0.8,10.6-1.3,15.9-2.3,21.1
	c-2.3,11.7-6.9,22.9-13.6,32.8c-2.9,4.3-6.4,8.4-13.3,16.5c-17.4,20.4-26.1,30.6-31.2,41.3c-11.8,24.7-11.8,53.3,0,78
	c5.1,10.7,13.8,20.9,31.2,41.3c6.9,8.1,10.4,12.2,13.3,16.5c6.7,9.9,11.3,21.1,13.6,32.8c1,5.1,1.4,10.4,2.3,21.1
	c2.1,26.7,3.2,40.1,7.1,51.2c9.1,25.8,29.4,46,55.1,55.2c11.1,3.9,24.5,5,51.2,7.1c10.6,0.8,15.9,1.3,21.1,2.3
	c11.7,2.3,22.9,6.9,32.8,13.6c4.3,2.9,8.4,6.4,16.5,13.3c20.4,17.4,30.6,26.1,41.3,31.2c24.7,11.8,53.3,11.8,78,0
	c10.7-5.1,20.9-13.8,41.3-31.2c8.1-6.9,12.2-10.4,16.5-13.3c9.9-6.7,21.1-11.3,32.8-13.6c5.1-1,10.4-1.4,21.1-2.3
	c26.7-2.1,40.1-3.2,51.2-7.1c25.8-9.1,46-29.4,55.2-55.2c3.9-11.1,5-24.5,7.1-51.2c0.8-10.6,1.3-15.9,2.3-21.1
	c2.3-11.7,6.9-22.9,13.6-32.8c2.9-4.3,6.4-8.4,13.3-16.5c17.4-20.4,26.1-30.6,31.2-41.3c11.8-24.7,11.8-53.3,0-78
	c-5.1-10.7-13.8-20.9-31.2-41.3c-6.9-8.1-10.4-12.2-13.3-16.5c-6.7-9.9-11.3-21.1-13.6-32.8c-1-5.1-1.4-10.4-2.3-21.1
	c-2.1-26.7-3.2-40.1-7.1-51.2c-9.1-25.8-29.4-46-55.2-55.1c-11.1-3.9-24.5-5-51.2-7.1c-10.6-0.8-15.9-1.3-21.1-2.3
	c-11.7-2.3-22.9-6.9-32.8-13.6c-4.3-2.9-8.4-6.4-16.5-13.3C393.2,22.8,383,14.1,372.3,9c-24.7-11.8-53.3-11.8-78,0
	C283.7,14.1,273.5,22.8,253.1,40.2z M461,205.8c10.6,10.6,10.6,27.8,0,38.4l-217,217c-10.6,10.6-27.8,10.6-38.4,0
	c-10.6-10.6-10.6-27.8,0-38.4l217-217C433.3,195.2,450.4,195.2,461,205.8z M459.9,423.9c0,20-16.2,36.2-36.2,36.2
	c-20,0-36.2-16.2-36.2-36.2s16.2-36.2,36.2-36.2C443.7,387.8,459.9,404,459.9,423.9z M242.9,279.3c20,0,36.2-16.2,36.2-36.2
	s-16.2-36.2-36.2-36.2s-36.2,16.2-36.2,36.2S222.9,279.3,242.9,279.3z"/>
</svg>
